<svg width="39" height="39" viewBox="0 0 39 39" fill="none" xmlns="http://www.w3.org/2000/svg">
<path d="M17.9177 4.25708C18.3234 3.00857 20.0897 3.00858 20.4953 4.25708L23.1617 12.4634C23.3432 13.0218 23.8635 13.3998 24.4505 13.3998L33.0792 13.3998C34.392 13.3998 34.9378 15.0796 33.8757 15.8513L26.895 20.923C26.42 21.2681 26.2213 21.8798 26.4027 22.4381L29.0691 30.6445C29.4748 31.893 28.0458 32.9312 26.9838 32.1596L20.0031 27.0878C19.5281 26.7427 18.885 26.7427 18.41 27.0878L11.4293 32.1596C10.3672 32.9312 8.93827 31.893 9.34393 30.6445L12.0103 22.4381C12.1917 21.8798 11.993 21.2681 11.518 20.923L4.53732 15.8513C3.47528 15.0796 4.0211 13.3998 5.33385 13.3998L13.9625 13.3998C14.5496 13.3998 15.0699 13.0218 15.2513 12.4634L17.9177 4.25708Z" fill="#F16E00"/>
</svg>
